<svg t="1669098534452" class="icon" viewBox="0 0 1024 1024" version="1.1" xmlns="http://www.w3.org/2000/svg" p-id="2677"
  width="1em" height="1em">
  <path
    d="M213.717333 173.162667l287.274667 287.232L788.202667 173.162667A8.533333 8.533333 0 0 1 794.24 170.666667h66.901333a8.533333 8.533333 0 0 1 6.037334 14.570666L546.496 505.898667l332.842667 332.864a8.533333 8.533333 0 0 1-6.037334 14.570666h-66.389333a8.533333 8.533333 0 0 1-6.037333-2.496L501.248 551.146667 201.514667 850.837333a8.533333 8.533333 0 0 1-6.016 2.496H128.64a8.533333 8.533333 0 0 1-6.037333-14.570666l333.12-333.12-320.426667-320.426667A8.533333 8.533333 0 0 1 141.333333 170.666667h66.346667a8.533333 8.533333 0 0 1 6.037333 2.496z"
    fill="#333333" p-id="2678"></path>
</svg>