<svg t="1670675389258" class="icon" viewBox="0 0 1024 1024" version="1.1" xmlns="http://www.w3.org/2000/svg" p-id="894"
  width="24" height="24">
  <path
    d="M419.783111 771.015111c2.321067 0 4.755911 0.045511 7.315911 0.159289l1.547378 0.068267 1.570133 0.079644 2.412089 0.147911 1.649778 0.113778 1.672533 0.125156 2.56 0.227555 1.7408 0.147911 1.774934 0.170667 1.797689 0.182044 1.831822 0.2048 1.854578 0.2048 0.944355 0.113778 1.900089 0.227556 0.955733 0.113777 1.9456 0.250312 1.968356 0.261688 2.002489 0.273067 2.025244 0.284445 2.059378 0.295822 2.093511 0.318578 2.116267 0.318577 2.139022 0.341334 2.173156 0.341333 1.103644 0.182044 2.207289 0.364089 2.2528 0.375467 1.137778 0.2048 2.275555 0.398222 2.332445 0.4096 2.343822 0.420978 2.389333 0.432356 2.389334 0.455111 1.2288 0.227555 2.446222 0.455111 2.480355 0.489245 1.251556 0.250311 2.525867 0.489244 1.774933 0.364089 1.797689-0.341333 2.503111-0.489245 2.480355-0.466488 3.663645-0.682667 2.412089-0.455111 2.377955-0.420978 3.515734-0.625778 2.298311-0.398222 2.275555-0.386844 2.2528-0.375467 2.218667-0.364089 2.184533-0.352711 2.161778-0.341333 2.139022-0.341334 2.093511-0.3072 2.082134-0.3072 2.048-0.295822 2.013866-0.284444 1.979734-0.273067 1.968355-0.250311 0.967111-0.125156 1.911467-0.250311 1.888711-0.227555 1.865956-0.227556 1.820444-0.193422 1.820445-0.193422 1.763555-0.182045 0.887467-0.091022 1.729422-0.170667 0.853333-0.079644 1.695289-0.136534 1.661156-0.136533 1.6384-0.125155 0.796444-0.056889 1.592889-0.113778 1.570134-0.091022 1.536-0.079645 0.762311-0.045511 1.490489-0.056889 1.479111-0.056889 0.7168-0.022755 1.4336-0.034134 2.7648-0.034133h0.671289c8.760889 0 18.796089 0.750933 30.139733 2.241422l2.070755 0.284445 2.104889 0.295822 2.139023 0.3072 2.161777 0.341333 2.195911 0.341334 2.218667 0.352711 1.115022 0.193422 2.275556 0.386844 3.447467 0.603023 2.332444 0.432355c1.570133 0.284444 3.163022 0.591644 4.778667 0.910222l2.423466 0.455112 2.446223 0.500622 2.491733 0.512 1.251555 0.261689 2.537245 0.523377 1.274311 0.273067 2.571378 0.568889 2.673778 0.568889 2.127644-0.455111 2.446222-0.534756 2.412089-0.523378 2.389333-0.500622 1.171912-0.250311 2.343822-0.477867 2.309689-0.466488 2.275555-0.455112 2.241422-0.432355 1.115023-0.227556 2.195911-0.4096 1.092266-0.193422 2.161778-0.398222 2.116267-0.375467 1.058133-0.193422 2.070756-0.341333 2.048-0.352711 2.025244-0.329956 1.979734-0.3072 1.968355-0.295822 1.934222-0.284445 1.888711-0.273066 1.865956-0.250311 1.8432-0.238934 2.696533-0.329955 1.774934-0.2048c2.036622-0.227556 4.016356-0.420978 5.9392-0.580267l1.6384-0.136533 3.185777-0.227556 1.536-0.091022c2.548622-0.136533 4.983467-0.2048 7.304534-0.227556h0.648533c2.594133 0 5.313422 0.091022 8.157867 0.250311l1.570133 0.091023c4.209778 0.273067 8.715378 0.7168 13.494045 1.319822l1.809066 0.227555 1.831822 0.261689 0.932978 0.125156 1.865956 0.273067 0.944355 0.147911 1.922845 0.295822 1.934222 0.318578 1.968356 0.329955 1.001244 0.170667 2.002489 0.341333 2.048 0.375467 2.048 0.375467 1.046755 0.2048 2.104889 0.4096 2.139023 0.420977 2.161777 0.432356 2.184534 0.455111 1.103644 0.227556 2.230045 0.477866 2.2528 0.489245 2.275555 0.512 2.321067 0.523377 1.171911 0.261689 2.3552 0.546134 2.389333 0.568889 1.194667 0.273066 2.423467 0.591645 4.096 1.001244v35.157333l-14.711467-3.584-2.161778-0.523377-1.058133-0.250311-2.116267-0.500623-2.082133-0.477866-1.024-0.227556-2.048-0.477867-2.025245-0.455111-1.979733-0.420977a538.282667 538.282667 0 0 0-0.978489-0.216178l-1.9456-0.4096-1.922844-0.4096-1.888711-0.386845-1.854578-0.375466-1.820445-0.352711-1.820444-0.341334-1.763556-0.341333-1.7408-0.318578-1.718044-0.3072-1.683911-0.284444-1.661156-0.284445-1.627022-0.261689-2.389333-0.364089-2.321067-0.341333-1.513244-0.2048a232.425244 232.425244 0 0 0-1.479112-0.2048l-1.456355-0.182044-1.422222-0.170667-0.705423-0.068267-1.376711-0.147911-1.353955-0.136533-0.659911-0.068267-1.9456-0.159289a129.820444 129.820444 0 0 0-4.289423-0.273066l-1.149155-0.045511-1.1264-0.034134-1.092267-0.022755h-1.069511l-1.991111 0.011377-1.046756 0.034134a111.195022 111.195022 0 0 0-1.069511 0.034133l-1.103644 0.056889-1.137778 0.056889-1.149155 0.079644a148.366222 148.366222 0 0 0-0.591645 0.045511l-1.194667 0.091023-1.240177 0.1024-1.251556 0.113777-1.285689 0.113778-1.319822 0.147911-1.342578 0.147911-1.365333 0.159289-1.399467 0.170667-1.4336 0.182044-1.456355 0.193423-1.479111 0.2048-1.513245 0.227555-1.536 0.227556-1.570133 0.227555-1.592889 0.261689-1.627022 0.261689-1.649778 0.284445-1.683911 0.284444-1.706667 0.295822-1.729422 0.3072-1.763556 0.329956-1.786311 0.329955-1.820444 0.341334-2.7648 0.546133-1.888711 0.375467-1.911467 0.386844-1.934222 0.398222-1.968356 0.4096-1.991111 0.420978-2.013867 0.432356-3.072 0.671289-2.093511 0.455111-2.116266 0.477866-2.127645 0.477867a23.256178 23.256178 0 0 1-10.160355 0l-2.332445-0.523378a753.436444 753.436444 0 0 0-1.160533-0.261689l-2.275556-0.500622-2.275555-0.500622-2.218667-0.477867-2.207289-0.466489-2.161778-0.455111a613.239467 613.239467 0 0 0-1.092266-0.227555l-2.127645-0.420978-2.104889-0.420978-2.070755-0.398222-2.048-0.386845-1.012622-0.193422-2.002489-0.375466-1.979734-0.341334-1.934222-0.341333-1.934222-0.341333-1.877333-0.3072-1.865956-0.295823-1.820444-0.295822-0.910223-0.136533-1.786311-0.261689-1.763555-0.250311-1.729422-0.238934-0.853334-0.113777-1.683911-0.227556-1.649778-0.193422a263.7824 263.7824 0 0 0-1.627022-0.193422l-1.592889-0.182045-3.117511-0.3072-1.501867-0.136533a183.227733 183.227733 0 0 0-5.051733-0.364089l-1.376711-0.079644-2.013867-0.079645-1.297066-0.045511a118.761244 118.761244 0 0 0-4.744534-0.034133l-1.1264 0.022755-1.149155 0.034134-1.183289 0.034133-0.603022 0.034133-1.2288 0.056889-1.251556 0.068267-1.285689 0.068266-1.308444 0.091023-0.682667 0.045511-1.353955 0.113778-1.388089 0.113777-1.410845 0.113778-1.444978 0.136533-0.739555 0.068267-1.490489 0.159289-1.524622 0.159289-0.762311 0.079644-1.570134 0.170667-1.592889 0.193422-1.615644 0.193422-1.649778 0.2048-1.683911 0.227556-0.853333 0.113778-1.718045 0.227555-1.752177 0.238934-1.786312 0.261689-1.809066 0.261688-1.831822 0.273067-1.865956 0.284445-1.900089 0.295822-1.922844 0.3072-1.9456 0.318578-1.991111 0.329955-3.015112 0.512-2.048 0.341333-2.082133 0.375467-2.116267 0.375467-2.139022 0.375466-3.254044 0.603023-2.207289 0.4096-3.356445 0.637155-2.275555 0.432356-3.470222 0.682666-2.343823 0.455112c-2.958222 0.591644-6.144 0.580267-9.102222-0.022756l-2.321066-0.466489-2.298312-0.455111-3.390577-0.682667-3.322311-0.648533-2.184534-0.420978-3.219911-0.603022-3.163022-0.580267-2.070756-0.375466-2.048-0.364089-2.013866-0.352711-1.991111-0.341334-1.956978-0.341333-1.934222-0.3072-1.911467-0.3072-1.877333-0.3072-1.8432-0.284444-1.820445-0.273067-1.786311-0.261689-1.763556-0.261689-1.7408-0.238933-1.706666-0.227556-0.841956-0.113778-1.661155-0.227555-1.627023-0.193422-1.604266-0.2048-1.581511-0.182045-0.773689-0.079644-1.536-0.170667-1.501867-0.159289-1.479111-0.147911-0.728178-0.068267-1.4336-0.125155-0.705422-0.056889-1.388089-0.113778-1.365333-0.113778-1.3312-0.079644-1.297067-0.079644-1.274311-0.079645-1.251556-0.056889-1.206044-0.045511-1.183289-0.034133-0.580267-0.022756-1.137777-0.022755h-1.661156c-7.122489 0-15.530667 0.694044-25.179022 2.127644l-1.820445 0.273067-1.854577 0.295822c-1.251556 0.2048-2.514489 0.4096-3.800178 0.637156l-1.934222 0.341333c-1.308444 0.227556-2.628267 0.477867-3.982223 0.739555l-2.013866 0.398223c-1.706667 0.341333-3.436089 0.682667-5.199645 1.058133l-2.127644 0.455111-1.069511 0.227556-2.173156 0.489244-1.092266 0.238933-2.218667 0.512c-1.479111 0.341333-2.992356 0.682667-4.5056 1.058134l-2.298311 0.557511-1.160534 0.284444-2.343822 0.580267c-3.185778 0.796444-6.747022 0.887467-10.0352 0.227556l-2.3552-0.466489-2.321066-0.455111-2.298312-0.455112-2.275555-0.432355-2.241422-0.420978-2.218667-0.420978-2.195911-0.398222-2.161778-0.398222-3.185778-0.568889-2.093511-0.364089-2.070755-0.364089-2.036623-0.341333-2.002488-0.341333-1.979734-0.318578-1.956978-0.3072-1.922844-0.3072-1.900089-0.295822-1.865955-0.273067-2.753423-0.4096-1.797689-0.250311-1.763555-0.238934-1.7408-0.227555-1.706667-0.227556-1.695289-0.216177-1.649777-0.2048-1.6384-0.182045a356.579556 356.579556 0 0 0-0.796445-0.091022l-1.592889-0.182045-1.547378-0.159288-1.524622-0.159289-1.501866-0.136534-1.479112-0.136533-0.7168-0.056889-1.422222-0.113778-0.705422-0.056889-1.388089-0.113777-1.353955-0.079645a203.320889 203.320889 0 0 0-0.659912-0.045511l-1.319822-0.068267-1.274311-0.068266-1.251555-0.045511-1.2288-0.045511a149.048889 149.048889 0 0 0-0.603023-0.022756l-1.183289-0.022756a125.769956 125.769956 0 0 0-2.275555-0.022755c-15.132444 0-30.970311 3.026489-47.593245 9.261511l-0.932977 0.341333-12.208356 4.778667v-37.0688c20.309333-7.361422 40.595911-11.116089 60.734578-11.116089 1.183289 0 2.389333 0 3.618133 0.034133l1.490489 0.034134 2.298311 0.079644 1.558756 0.068267 1.592889 0.079644 0.796444 0.045511 1.6384 0.113778 0.830578 0.045511 1.672533 0.113778 1.706667 0.136533 0.853333 0.068267 1.752178 0.147911 1.774933 0.159289 1.797689 0.170667 1.820445 0.193422 1.865955 0.193422 1.888711 0.216178 1.911467 0.227556 1.934222 0.227555 2.980978 0.375467 3.026489 0.398222 2.059378 0.284444 1.046755 0.147912 2.093511 0.3072 1.069511 0.159288 2.139023 0.318578 2.173155 0.341334 2.207289 0.341333 2.230045 0.352711 1.1264 0.182044 2.275555 0.375467 2.298311 0.386845 2.332445 0.4096 2.366577 0.4096 2.389334 0.420977 3.640889 0.659911 2.468977 0.455112 2.503112 0.477866 2.514488 0.477867 2.56 0.489244 1.319823 0.261689 0.227555-0.056889 2.605511-0.625777 2.571378-0.603023c4.266667-0.989867 8.419556-1.900089 12.447289-2.730666l2.412089-0.489245c19.1488-3.834311 35.669333-5.802667 49.720889-5.882311h0.853333z m75.5712-414.082844c92.5696 0 167.606044 75.036444 167.606045 167.606044v183.125333l2.821688-0.591644 1.171912-0.250311 2.343822-0.477867 2.309689-0.466489 2.275555-0.455111 2.241422-0.432355 1.115023-0.227556 2.195911-0.4096 1.092266-0.193422 2.161778-0.398222 2.116267-0.375467 1.058133-0.182044 2.070756-0.364089 2.048-0.341334 2.025244-0.329955 1.979734-0.3072 1.968355-0.295822 1.934222-0.284445 1.888711-0.273067 1.865956-0.250311 1.8432-0.227555 2.696533-0.341334 1.774934-0.2048c2.036622-0.227556 4.016356-0.420978 5.9392-0.580266l1.6384-0.136534 3.185777-0.227555 1.536-0.091022c2.548622-0.136533 4.983467-0.2048 7.304534-0.227556h0.648533c2.594133 0 5.313422 0.091022 8.157867 0.250311l1.570133 0.091022c4.209778 0.273067 8.715378 0.7168 13.494045 1.319823l1.809066 0.227555 1.831822 0.261689 0.932978 0.125156 1.865956 0.273066 0.944355 0.147911 1.922845 0.295823 1.934222 0.318577 1.968356 0.329956 1.001244 0.170667 2.002489 0.341333 2.048 0.375467 2.048 0.386844 1.046755 0.193422 2.104889 0.4096 2.139023 0.420978 2.161777 0.432356 2.184534 0.455111 1.103644 0.227555 2.230045 0.477867 2.2528 0.489244 2.275555 0.512 2.321067 0.523378 1.171911 0.261689 2.3552 0.546133 2.389333 0.568889 1.194667 0.273067 2.423467 0.591644 4.096 1.012623v35.157333l-14.711467-3.595378-2.161778-0.523378-1.058133-0.250311-2.116267-0.500622-2.082133-0.477867-1.024-0.227555-2.048-0.477867-2.025245-0.443733-1.979733-0.432356-0.978489-0.216177-1.9456-0.4096-1.922844-0.4096-1.888711-0.386845-1.854578-0.364089-1.820445-0.364089-1.820444-0.341333-1.763556-0.341333-1.7408-0.318578-1.718044-0.295822-1.683911-0.295823-1.661156-0.273066-1.627022-0.273067-2.389333-0.364089-2.321067-0.341333-1.513244-0.2048a232.334222 232.334222 0 0 0-1.479112-0.2048l-1.456355-0.182045-1.422222-0.159288-0.705423-0.079645-1.376711-0.147911-1.353955-0.136533-0.659911-0.068267-1.9456-0.159289a129.820444 129.820444 0 0 0-4.289423-0.273067l-1.149155-0.045511-1.1264-0.034133-1.092267-0.022756h-1.069511l-1.991111 0.011378-1.046756 0.034134a111.229156 111.229156 0 0 0-1.069511 0.034133l-1.103644 0.056889-1.137778 0.056889-1.149155 0.079644-0.591645 0.045511-1.194667 0.091022-1.240177 0.1024-1.251556 0.113778-1.285689 0.113778-1.319822 0.147911-1.342578 0.147911-1.365333 0.159289-1.399467 0.170667-1.4336 0.182044-1.456355 0.193422-1.479111 0.2048-1.513245 0.227556-1.536 0.227556-1.570133 0.238933-1.592889 0.250311-1.627022 0.261689-1.649778 0.284444-1.683911 0.284445-1.706667 0.295822-1.729422 0.3072-1.763556 0.329956-1.786311 0.341333-1.820444 0.341333-2.7648 0.534756-1.888711 0.375466-1.911467 0.386845-1.934222 0.398222-1.968356 0.4096-1.991111 0.420978-2.013867 0.432355-3.072 0.671289-2.093511 0.455111-2.116266 0.477867-2.127645 0.489245a23.256178 23.256178 0 0 1-10.160355 0l-2.332445-0.534756a750.751289 750.751289 0 0 0-1.160533-0.261689l-2.275556-0.500622-2.275555-0.500622-2.218667-0.477867-2.207289-0.455111-2.161778-0.455111a613.239467 613.239467 0 0 0-1.092266-0.227556l-2.127645-0.432355-2.104889-0.420978-2.070755-0.398222-2.048-0.386845-1.012622-0.193422-2.002489-0.364089-1.979734-0.364089-1.934222-0.341333-1.934222-0.318578-1.877333-0.318578-1.865956-0.295822-1.820444-0.295822-0.910223-0.136533-1.786311-0.261689-1.763555-0.250311-1.729422-0.238934-0.853334-0.113778-1.683911-0.227555-1.649778-0.193422a263.7824 263.7824 0 0 0-1.627022-0.193423l-1.592889-0.170666c-1.069511-0.113778-2.104889-0.227556-3.117511-0.318578l-1.501867-0.136533a183.227733 183.227733 0 0 0-5.051733-0.364089l-1.376711-0.079645-2.013867-0.079644-1.297066-0.045511a118.761244 118.761244 0 0 0-4.744534-0.034134l-1.1264 0.022756-1.149155 0.034133-1.183289 0.045511-0.603022 0.022756-1.2288 0.056889-1.251556 0.068267-1.285689 0.068266-1.308444 0.091022-0.682667 0.045512-1.353955 0.113777-1.388089 0.113778-1.410845 0.113778-1.444978 0.136533-0.739555 0.068267-1.490489 0.159289-1.524622 0.159289-0.762311 0.079644-1.570134 0.182045-1.592889 0.182044-1.615644 0.193422-1.649778 0.2048-1.683911 0.227556-0.853333 0.113778-1.718045 0.227555-1.752177 0.238933-1.786312 0.261689-1.809066 0.261689-1.831822 0.273067-1.865956 0.284444-1.900089 0.295823-1.922844 0.3072-1.9456 0.318577-1.991111 0.329956-3.015112 0.512-2.048 0.341333-2.082133 0.375467-2.116267 0.375467-2.139022 0.375466-3.254044 0.603022-2.207289 0.4096-3.356445 0.637156-2.275555 0.432356-3.470222 0.682666-2.343823 0.455111c-2.958222 0.591644-6.144 0.591644-9.102222-0.022755l-2.321066-0.466489-2.298312-0.455111-3.390577-0.682667-3.322311-0.648533-2.184534-0.420978-3.219911-0.603022-3.163022-0.580267-2.070756-0.375467-2.048-0.364088-2.013866-0.352712-1.991111-0.341333-1.956978-0.341333-1.934222-0.3072-1.911467-0.3072-1.877333-0.295822-1.8432-0.295823-1.820445-0.273066-1.786311-0.261689-1.763556-0.261689-1.7408-0.238933-1.706666-0.227556-0.841956-0.113778-1.661155-0.227555-1.627023-0.193423-1.604266-0.193422-1.581511-0.193422-0.773689-0.079644-1.536-0.170667-1.501867-0.159289-1.479111-0.147911-0.728178-0.068267-1.4336-0.125155-0.705422-0.056889-1.388089-0.113778-1.365333-0.113778-1.3312-0.079644-1.297067-0.079645-1.274311-0.079644-1.251556-0.056889-1.206044-0.045511-1.183289-0.034133-0.580267-0.022756-1.137777-0.022756h-1.661156c-7.122489 0-15.530667 0.705422-25.179022 2.127645l-1.820445 0.273067-1.854577 0.295822c-1.251556 0.2048-2.514489 0.4096-3.800178 0.637155l-1.934222 0.341334c-1.308444 0.227556-2.628267 0.477867-3.982223 0.739555l-2.013866 0.398222c-1.706667 0.341333-3.436089 0.682667-5.199645 1.058134l-2.127644 0.455111-1.069511 0.227555-2.173156 0.489245-1.092266 0.238933-2.218667 0.512c-1.479111 0.341333-2.992356 0.682667-4.5056 1.058134l-2.298311 0.557511-1.160534 0.284444-2.343822 0.580267c-3.185778 0.796444-6.747022 0.887467-10.0352 0.227555l-2.3552-0.466489-2.321066-0.455111-2.298312-0.455111-2.275555-0.432355-2.241422-0.420978-2.218667-0.420978-2.195911-0.398222-2.161778-0.398222-3.185778-0.568889-2.093511-0.364089-2.070755-0.364089-2.036623-0.341333-2.002488-0.341334-1.979734-0.318577-1.956978-0.3072-1.922844-0.3072-1.900089-0.295823-1.865955-0.273066-2.753423-0.4096-1.797689-0.250311-1.763555-0.238934-1.7408-0.227555-1.706667-0.227556-1.695289-0.216178-1.649777-0.2048-1.6384-0.182044a355.919644 355.919644 0 0 0-0.796445-0.091022l-1.592889-0.182045-1.547378-0.159289-1.524622-0.159289-1.501866-0.136533-1.479112-0.136533-0.7168-0.056889-1.422222-0.113778-0.705422-0.056889-1.388089-0.113778-1.353955-0.079644a203.320889 203.320889 0 0 0-0.659912-0.045511l-1.319822-0.068267-1.274311-0.068266-1.251555-0.045512-1.2288-0.045511-0.603023-0.011377-1.183289-0.034134a125.769956 125.769956 0 0 0-2.275555-0.022755c-15.132444 0-30.970311 3.037867-47.593245 9.261511l-0.932977 0.341333-12.208356 4.778667V709.859556c20.309333-7.361422 40.595911-11.116089 60.734578-11.116089 1.183289 0 2.389333 0 3.618133 0.034133l1.490489 0.034133 2.298311 0.079645 1.558756 0.068266 1.592889 0.091023 0.796444 0.034133 1.6384 0.113778 0.830578 0.045511 1.672533 0.113778 1.706667 0.136533 0.853333 0.068267 1.752178 0.147911 1.774933 0.159289 1.797689 0.170666 1.820445 0.193423 1.865955 0.193422 1.888711 0.216178 1.911467 0.227555 1.934222 0.227556 2.980978 0.375466 3.026489 0.398223 2.059378 0.284444 1.046755 0.147911 2.093511 0.3072 1.069511 0.159289 2.139023 0.318578 2.173155 0.341333 2.207289 0.341333 2.230045 0.352712 1.1264 0.182044 2.275555 0.375467 2.298311 0.386844 0.887467 0.147911V524.538311c0-92.5696 75.047822-167.606044 167.617422-167.606044z m27.261156 100.852622l-76.5952 110.136889h75.5712l-19.035023 70.576355 63.192178-94.856533h-71.315911l28.182756-85.856711z m305.698133-60.5184a24.177778 24.177778 0 0 1-9.875911 31.175111l-1.672533 0.853333-71.827912 33.792a23.881956 23.881956 0 0 1-31.835022-11.616711 24.177778 24.177778 0 0 1 9.898667-31.175111l1.649778-0.864711 71.839289-33.792a23.881956 23.881956 0 0 1 31.823644 11.628089z m-627.325156-13.027556l1.774934 0.568889 69.973333 25.486222a24.132267 24.132267 0 0 1 14.370133 30.867912 23.916089 23.916089 0 0 1-28.888177 15.018666l-1.774934-0.568889-69.973333-25.486222a24.132267 24.132267 0 0 1-14.370133-30.856533 23.916089 23.916089 0 0 1 28.888177-15.018667z m512.853334-113.584355c9.102222 8.647111 9.966933 22.801067 2.309689 32.483555l-1.365334 1.570134-53.304889 56.7296c-9.079467 9.671111-24.234667 10.092089-33.848888 0.955733a24.200533 24.200533 0 0 1-2.298312-32.494933l1.353956-1.570134 53.304889-56.7296a23.836444 23.836444 0 0 1 33.848889-0.944355z m-391.600356 1.069511l1.274311 1.501867L368.036978 329.955556c8.192 10.4448 6.428444 25.6-3.959467 33.837511a23.836444 23.836444 0 0 1-32.347022-2.468978l-1.274311-1.501867-44.521245-56.7296a24.200533 24.200533 0 0 1 3.948089-33.848889 23.836444 23.836444 0 0 1 32.3584 2.480356zM503.682844 204.8a24.007111 24.007111 0 0 1 23.870578 22.300444l0.068267 1.797689v72.283023c0 13.312-10.717867 24.086756-23.938845 24.086755a24.007111 24.007111 0 0 1-23.893333-22.300444l-0.056889-1.786311v-72.283023c0-13.312 10.717867-24.098133 23.950222-24.098133z"
    fill="#40A9FF" p-id="895"></path>
</svg>